<mxfile host="65bd71144e" modified="2021-02-15T14:42:59.244Z" agent="5.0 (Windows NT 10.0; Win64; x64) AppleWebKit/537.36 (KHTML, like Gecko) Code/1.53.2 Chrome/87.0.4280.141 Electron/11.2.1 Safari/537.36" etag="Ruc9mK7Fgy1KfSxSpc7z" version="14.2.4" type="embed" pages="3">
    <diagram id="5OUWf9cHC7LQuVnrr8T9" name="Context Diagram">
        <mxGraphModel dx="1257" dy="2250" grid="0" gridSize="8" guides="1" tooltips="1" connect="1" arrows="1" fold="1" page="1" pageScale="1" pageWidth="1169" pageHeight="827" math="0" shadow="0">
            <root>
                <mxCell id="0"/>
                <mxCell id="1" parent="0"/>
                <mxCell id="eKIVXe9VcCoeET7D3AvJ-17" style="edgeStyle=orthogonalEdgeStyle;rounded=0;sketch=1;orthogonalLoop=1;jettySize=auto;html=1;shadow=0;startArrow=none;startFill=0;fontFamily=Verdana;fontSize=12;fontColor=#6281AD;endArrow=classicThin;endFill=1;" parent="1" source="eKIVXe9VcCoeET7D3AvJ-9" target="eKIVXe9VcCoeET7D3AvJ-6" edge="1">
                    <mxGeometry relative="1" as="geometry"/>
                </mxCell>
                <mxCell id="eKIVXe9VcCoeET7D3AvJ-19" value="&lt;div&gt;Views and manages all of their tasks,&lt;/div&gt;&lt;div&gt;including adding, removing, and &lt;br&gt;&lt;/div&gt;&lt;div&gt;changing their state using&lt;br&gt;&lt;/div&gt;" style="edgeLabel;html=1;align=center;verticalAlign=middle;resizable=0;points=[];fontSize=12;fontFamily=Verdana;" parent="eKIVXe9VcCoeET7D3AvJ-17" vertex="1" connectable="0">
                    <mxGeometry x="-0.2837" relative="1" as="geometry">
                        <mxPoint y="17.71" as="offset"/>
                    </mxGeometry>
                </mxCell>
                <mxCell id="eKIVXe9VcCoeET7D3AvJ-9" value="&lt;h2&gt;User&lt;br style=&quot;font-size: 12px&quot;&gt;&lt;/h2&gt;&lt;p style=&quot;font-size: 12px&quot;&gt;A person with many tasks to do, &lt;br&gt;&lt;/p&gt;&lt;p style=&quot;font-size: 12px&quot;&gt;who would like to use a web&lt;/p&gt;&lt;p style=&quot;font-size: 12px&quot;&gt; interface to organise them based&lt;/p&gt;&lt;p style=&quot;font-size: 12px&quot;&gt; on their status.&lt;br style=&quot;font-size: 12px&quot;&gt;&lt;/p&gt;" style="shape=umlActor;verticalLabelPosition=middle;verticalAlign=bottom;html=1;outlineConnect=0;shadow=0;sketch=1;strokeWidth=2;fillColor=none;fontFamily=Verdana;fontSize=12;fontColor=#6281AD;align=left;labelPosition=right;horizontal=1;strokeColor=#7EA6E0;" parent="1" vertex="1">
                    <mxGeometry x="536" y="-1600" width="60" height="140" as="geometry"/>
                </mxCell>
                <mxCell id="eKIVXe9VcCoeET7D3AvJ-6" value="&lt;h2&gt;&lt;font color=&quot;#5E4969&quot;&gt;ToDo App&lt;/font&gt;&lt;/h2&gt;&lt;div align=&quot;center&quot;&gt;&lt;font color=&quot;#5E4969&quot;&gt;Allows users to see all of their tasks organised by status, to update the state of tasks, and to add or remove tasks as desired.&lt;br&gt;&lt;/font&gt;&lt;/div&gt;" style="rounded=0;whiteSpace=wrap;html=1;shadow=0;sketch=1;strokeWidth=2;fontFamily=Helvetica;align=center;strokeColor=#9673a6;fillColor=#e1d5e7;labelPosition=center;verticalLabelPosition=middle;verticalAlign=top;" parent="1" vertex="1">
                    <mxGeometry x="431" y="-1320" width="270" height="150" as="geometry"/>
                </mxCell>
                <mxCell id="eKIVXe9VcCoeET7D3AvJ-15" value="&lt;h2&gt;&lt;span style=&quot;color: rgb(94 , 73 , 105)&quot;&gt;MongoDB&lt;/span&gt;&lt;/h2&gt;&lt;h2&gt;&lt;span style=&quot;color: rgb(94 , 73 , 105) ; font-size: 12px ; font-weight: normal&quot;&gt;Stores all the information about a users tasks, including their title and state&lt;/span&gt;&lt;br&gt;&lt;/h2&gt;" style="rounded=0;whiteSpace=wrap;html=1;shadow=0;sketch=1;strokeWidth=2;fontFamily=Helvetica;align=center;strokeColor=#666666;fillColor=#f5f5f5;labelPosition=center;verticalLabelPosition=middle;verticalAlign=top;fontColor=#333333;" parent="1" vertex="1">
                    <mxGeometry x="431" y="-1030" width="270" height="150" as="geometry"/>
                </mxCell>
                <mxCell id="eKIVXe9VcCoeET7D3AvJ-18" value="&lt;div&gt;Gets information about a users&lt;/div&gt;&lt;div&gt; tasks from, and tells to updates them&lt;/div&gt;" style="edgeStyle=orthogonalEdgeStyle;rounded=0;sketch=1;orthogonalLoop=1;jettySize=auto;html=1;shadow=0;startArrow=none;startFill=0;fontFamily=Verdana;fontSize=12;endArrow=classicThin;endFill=1;exitX=0.5;exitY=1;exitDx=0;exitDy=0;labelBackgroundColor=#ffffff;" parent="1" source="eKIVXe9VcCoeET7D3AvJ-6" target="eKIVXe9VcCoeET7D3AvJ-15" edge="1">
                    <mxGeometry relative="1" as="geometry">
                        <mxPoint x="563" y="-1161" as="sourcePoint"/>
                        <mxPoint x="563" y="-1021" as="targetPoint"/>
                    </mxGeometry>
                </mxCell>
            </root>
        </mxGraphModel>
    </diagram>
    <diagram id="euWOQJ6ljFwDd7lty8K_" name="Container Diagram">
        <mxGraphModel dx="1257" dy="2250" grid="1" gridSize="10" guides="1" tooltips="1" connect="1" arrows="1" fold="1" page="1" pageScale="1" pageWidth="1169" pageHeight="827" math="0" shadow="0">
            <root>
                <mxCell id="WXY9y2GWf0TfE6yYeOiG-0"/>
                <mxCell id="WXY9y2GWf0TfE6yYeOiG-1" parent="WXY9y2GWf0TfE6yYeOiG-0"/>
                <mxCell id="WXY9y2GWf0TfE6yYeOiG-2" style="edgeStyle=orthogonalEdgeStyle;rounded=0;orthogonalLoop=1;jettySize=auto;html=1;entryX=0.5;entryY=0;entryDx=0;entryDy=0;fontColor=#5E4969;sketch=1;" parent="WXY9y2GWf0TfE6yYeOiG-1" source="WXY9y2GWf0TfE6yYeOiG-4" target="WXY9y2GWf0TfE6yYeOiG-8" edge="1">
                    <mxGeometry relative="1" as="geometry"/>
                </mxCell>
                <mxCell id="WXY9y2GWf0TfE6yYeOiG-3" value="Views and manages tasks using " style="edgeLabel;html=1;align=center;verticalAlign=middle;resizable=0;points=[];" parent="WXY9y2GWf0TfE6yYeOiG-2" vertex="1" connectable="0">
                    <mxGeometry x="-0.1003" y="76" relative="1" as="geometry">
                        <mxPoint x="-7" y="14" as="offset"/>
                    </mxGeometry>
                </mxCell>
                <mxCell id="WXY9y2GWf0TfE6yYeOiG-4" value="&lt;h2&gt;User&lt;br style=&quot;font-size: 12px&quot;&gt;&lt;/h2&gt;&lt;p style=&quot;font-size: 12px&quot;&gt;A person with many tasks to do, &lt;br&gt;&lt;/p&gt;&lt;p style=&quot;font-size: 12px&quot;&gt;who would like to use a web&lt;/p&gt;&lt;p style=&quot;font-size: 12px&quot;&gt; interface to organise them based&lt;/p&gt;&lt;p style=&quot;font-size: 12px&quot;&gt; on their status.&lt;br style=&quot;font-size: 12px&quot;&gt;&lt;/p&gt;" style="shape=umlActor;verticalLabelPosition=middle;verticalAlign=bottom;html=1;outlineConnect=0;shadow=0;sketch=1;strokeWidth=2;fillColor=none;fontFamily=Verdana;fontSize=12;fontColor=#6281AD;align=left;labelPosition=right;horizontal=1;strokeColor=#7EA6E0;" parent="WXY9y2GWf0TfE6yYeOiG-1" vertex="1">
                    <mxGeometry x="430" y="-1600" width="60" height="120" as="geometry"/>
                </mxCell>
                <mxCell id="WXY9y2GWf0TfE6yYeOiG-5" value="&lt;h2&gt;&lt;font color=&quot;#5E4969&quot;&gt;Mongo DB&lt;/font&gt;&lt;/h2&gt;&lt;div align=&quot;center&quot;&gt;&lt;font color=&quot;#5E4969&quot;&gt;Stores all the information about a users tasks, including their title and state&lt;br&gt;&lt;/font&gt;&lt;/div&gt;" style="rounded=0;whiteSpace=wrap;html=1;shadow=0;sketch=1;strokeWidth=2;fontFamily=Helvetica;align=center;strokeColor=#666666;fillColor=#f5f5f5;labelPosition=center;verticalLabelPosition=middle;verticalAlign=top;fontColor=#333333;" parent="WXY9y2GWf0TfE6yYeOiG-1" vertex="1">
                    <mxGeometry x="910" y="-1075" width="231" height="120" as="geometry"/>
                </mxCell>
                <mxCell id="WXY9y2GWf0TfE6yYeOiG-6" value="&lt;div&gt;&lt;h2&gt;ToDo App&lt;/h2&gt;&lt;/div&gt;" style="rounded=0;whiteSpace=wrap;html=1;strokeColor=#9673a6;fillColor=none;dashed=1;sketch=1;labelPosition=center;verticalLabelPosition=middle;align=left;verticalAlign=bottom;fontColor=#5E4969;fontStyle=1" parent="WXY9y2GWf0TfE6yYeOiG-1" vertex="1">
                    <mxGeometry x="40" y="-1360" width="840" height="480" as="geometry"/>
                </mxCell>
                <mxCell id="WXY9y2GWf0TfE6yYeOiG-7" value="&lt;div&gt;Make requests for page &lt;br&gt;&lt;/div&gt;&lt;div&gt;to show, and to update&lt;/div&gt;&lt;div&gt;tasks&lt;br&gt;&lt;/div&gt;" style="edgeStyle=orthogonalEdgeStyle;rounded=0;sketch=1;orthogonalLoop=1;jettySize=auto;html=1;exitX=1;exitY=0.25;exitDx=0;exitDy=0;entryX=0;entryY=0.25;entryDx=0;entryDy=0;" parent="WXY9y2GWf0TfE6yYeOiG-1" source="WXY9y2GWf0TfE6yYeOiG-8" target="WXY9y2GWf0TfE6yYeOiG-12" edge="1">
                    <mxGeometry relative="1" as="geometry"/>
                </mxCell>
                <mxCell id="WXY9y2GWf0TfE6yYeOiG-8" value="&lt;h3&gt;Single-page web application&lt;/h3&gt;" style="rounded=0;whiteSpace=wrap;html=1;dashed=1;sketch=1;strokeColor=#666666;fillColor=#f5f5f5;fontColor=#333333;" parent="WXY9y2GWf0TfE6yYeOiG-1" vertex="1">
                    <mxGeometry x="170" y="-1330" width="150" height="100" as="geometry"/>
                </mxCell>
                <mxCell id="WXY9y2GWf0TfE6yYeOiG-9" style="edgeStyle=orthogonalEdgeStyle;rounded=0;sketch=1;orthogonalLoop=1;jettySize=auto;html=1;entryX=1;entryY=0.75;entryDx=0;entryDy=0;fontColor=#5E4969;exitX=0;exitY=0.75;exitDx=0;exitDy=0;" parent="WXY9y2GWf0TfE6yYeOiG-1" source="WXY9y2GWf0TfE6yYeOiG-12" target="WXY9y2GWf0TfE6yYeOiG-8" edge="1">
                    <mxGeometry relative="1" as="geometry"/>
                </mxCell>
                <mxCell id="WXY9y2GWf0TfE6yYeOiG-10" value="&lt;div&gt;Serves page to&lt;/div&gt;&lt;div&gt; be displayed&lt;/div&gt;" style="edgeLabel;html=1;align=center;verticalAlign=middle;resizable=0;points=[];" parent="WXY9y2GWf0TfE6yYeOiG-9" vertex="1" connectable="0">
                    <mxGeometry x="-0.0375" y="3" relative="1" as="geometry">
                        <mxPoint as="offset"/>
                    </mxGeometry>
                </mxCell>
                <mxCell id="WXY9y2GWf0TfE6yYeOiG-11" style="edgeStyle=orthogonalEdgeStyle;rounded=0;sketch=1;orthogonalLoop=1;jettySize=auto;html=1;exitX=0.75;exitY=1;exitDx=0;exitDy=0;entryX=1;entryY=0.75;entryDx=0;entryDy=0;fontColor=#5E4969;" parent="WXY9y2GWf0TfE6yYeOiG-1" source="WXY9y2GWf0TfE6yYeOiG-12" target="WXY9y2GWf0TfE6yYeOiG-15" edge="1">
                    <mxGeometry relative="1" as="geometry"/>
                </mxCell>
                <mxCell id="t26p23If-IifdbwC1JvO-0" value="Passes on requests" style="edgeLabel;html=1;align=center;verticalAlign=middle;resizable=0;points=[];" parent="WXY9y2GWf0TfE6yYeOiG-11" vertex="1" connectable="0">
                    <mxGeometry x="-0.2806" y="3" relative="1" as="geometry">
                        <mxPoint x="-100.5" y="5" as="offset"/>
                    </mxGeometry>
                </mxCell>
                <mxCell id="WXY9y2GWf0TfE6yYeOiG-12" value="&lt;div&gt;&lt;h3&gt;Gunicorn &lt;/h3&gt;&lt;/div&gt;&lt;div&gt;[WSGI Application server]&lt;/div&gt;" style="rounded=0;whiteSpace=wrap;html=1;dashed=1;sketch=1;strokeColor=#666666;fillColor=#f5f5f5;fontColor=#333333;" parent="WXY9y2GWf0TfE6yYeOiG-1" vertex="1">
                    <mxGeometry x="480" y="-1330" width="170" height="100" as="geometry"/>
                </mxCell>
                <mxCell id="WXY9y2GWf0TfE6yYeOiG-13" style="edgeStyle=orthogonalEdgeStyle;rounded=0;sketch=1;orthogonalLoop=1;jettySize=auto;html=1;entryX=0.25;entryY=1;entryDx=0;entryDy=0;fontColor=#5E4969;exitX=1;exitY=0.25;exitDx=0;exitDy=0;" parent="WXY9y2GWf0TfE6yYeOiG-1" source="WXY9y2GWf0TfE6yYeOiG-15" target="WXY9y2GWf0TfE6yYeOiG-12" edge="1">
                    <mxGeometry relative="1" as="geometry"/>
                </mxCell>
                <mxCell id="t26p23If-IifdbwC1JvO-1" value="&lt;div&gt;Provides HTML pages&lt;/div&gt;&lt;div&gt; to be served&lt;/div&gt;" style="edgeLabel;html=1;align=center;verticalAlign=middle;resizable=0;points=[];fontColor=#000000;" parent="WXY9y2GWf0TfE6yYeOiG-13" vertex="1" connectable="0">
                    <mxGeometry x="-0.3882" y="1" relative="1" as="geometry">
                        <mxPoint as="offset"/>
                    </mxGeometry>
                </mxCell>
                <mxCell id="WXY9y2GWf0TfE6yYeOiG-14" style="edgeStyle=orthogonalEdgeStyle;rounded=0;sketch=1;orthogonalLoop=1;jettySize=auto;html=1;entryX=0;entryY=0.25;entryDx=0;entryDy=0;fontColor=#5E4969;exitX=0.75;exitY=1;exitDx=0;exitDy=0;" parent="WXY9y2GWf0TfE6yYeOiG-1" source="WXY9y2GWf0TfE6yYeOiG-15" target="WXY9y2GWf0TfE6yYeOiG-19" edge="1">
                    <mxGeometry relative="1" as="geometry"/>
                </mxCell>
                <mxCell id="t26p23If-IifdbwC1JvO-2" value="&lt;div&gt;Calls specific route&lt;/div&gt;&lt;div&gt;methods&lt;br&gt;&lt;/div&gt;" style="edgeLabel;html=1;align=center;verticalAlign=middle;resizable=0;points=[];fontColor=#000000;" parent="WXY9y2GWf0TfE6yYeOiG-14" vertex="1" connectable="0">
                    <mxGeometry x="-0.3887" y="2" relative="1" as="geometry">
                        <mxPoint x="75.5" y="4" as="offset"/>
                    </mxGeometry>
                </mxCell>
                <mxCell id="WXY9y2GWf0TfE6yYeOiG-15" value="&lt;h3&gt;Flask&lt;/h3&gt;&lt;div&gt;[Web Framework]&lt;br&gt;&lt;/div&gt;" style="rounded=0;whiteSpace=wrap;html=1;dashed=1;sketch=1;strokeColor=#666666;fillColor=#f5f5f5;fontColor=#333333;" parent="WXY9y2GWf0TfE6yYeOiG-1" vertex="1">
                    <mxGeometry x="240" y="-1175" width="150" height="100" as="geometry"/>
                </mxCell>
                <mxCell id="WXY9y2GWf0TfE6yYeOiG-16" style="edgeStyle=orthogonalEdgeStyle;rounded=0;sketch=1;orthogonalLoop=1;jettySize=auto;html=1;entryX=0.25;entryY=1;entryDx=0;entryDy=0;fontColor=#5E4969;exitX=0;exitY=0.75;exitDx=0;exitDy=0;" parent="WXY9y2GWf0TfE6yYeOiG-1" source="WXY9y2GWf0TfE6yYeOiG-19" target="WXY9y2GWf0TfE6yYeOiG-15" edge="1">
                    <mxGeometry relative="1" as="geometry"/>
                </mxCell>
                <mxCell id="t26p23If-IifdbwC1JvO-3" value="&lt;div&gt;Provides templates and&lt;/div&gt;&lt;div&gt; data for web page to be shown&lt;/div&gt;" style="edgeLabel;html=1;align=center;verticalAlign=middle;resizable=0;points=[];fontColor=#000000;" parent="WXY9y2GWf0TfE6yYeOiG-16" vertex="1" connectable="0">
                    <mxGeometry x="0.2296" y="-3" relative="1" as="geometry">
                        <mxPoint x="-21" y="-44.5" as="offset"/>
                    </mxGeometry>
                </mxCell>
                <mxCell id="WXY9y2GWf0TfE6yYeOiG-17" style="edgeStyle=orthogonalEdgeStyle;rounded=0;sketch=1;orthogonalLoop=1;jettySize=auto;html=1;entryX=0;entryY=0.5;entryDx=0;entryDy=0;fontColor=#5E4969;" parent="WXY9y2GWf0TfE6yYeOiG-1" source="WXY9y2GWf0TfE6yYeOiG-19" target="WXY9y2GWf0TfE6yYeOiG-5" edge="1">
                    <mxGeometry relative="1" as="geometry"/>
                </mxCell>
                <mxCell id="WXY9y2GWf0TfE6yYeOiG-18" value="&lt;div&gt;Makes API calls to get and&lt;/div&gt;&lt;div&gt; update information about tasks&lt;/div&gt;" style="edgeLabel;html=1;align=center;verticalAlign=middle;resizable=0;points=[];" parent="WXY9y2GWf0TfE6yYeOiG-17" vertex="1" connectable="0">
                    <mxGeometry x="0.0065" y="-1" relative="1" as="geometry">
                        <mxPoint as="offset"/>
                    </mxGeometry>
                </mxCell>
                <mxCell id="WXY9y2GWf0TfE6yYeOiG-19" value="&lt;h3&gt;Application code&lt;/h3&gt;" style="rounded=0;whiteSpace=wrap;html=1;dashed=1;sketch=1;strokeColor=#666666;fillColor=#f5f5f5;fontColor=#333333;" parent="WXY9y2GWf0TfE6yYeOiG-1" vertex="1">
                    <mxGeometry x="530" y="-1020" width="190" height="130" as="geometry"/>
                </mxCell>
            </root>
        </mxGraphModel>
    </diagram>
    <diagram id="GpSSWWHbdrlh_tIzkm8B" name="Component Diagram">
        <mxGraphModel dx="1257" dy="2250" grid="1" gridSize="10" guides="1" tooltips="1" connect="1" arrows="1" fold="1" page="1" pageScale="1" pageWidth="1169" pageHeight="827" math="0" shadow="0">
            <root>
                <mxCell id="WpliEfz5V6QQTeIyRUAZ-0"/>
                <mxCell id="WpliEfz5V6QQTeIyRUAZ-1" parent="WpliEfz5V6QQTeIyRUAZ-0"/>
                <mxCell id="3BvNVmp9yPucYOcCBTMv-1" style="edgeStyle=orthogonalEdgeStyle;rounded=0;orthogonalLoop=1;jettySize=auto;html=1;exitX=0.5;exitY=1;exitDx=0;exitDy=0;startArrow=none;startFill=0;fontColor=#000000;sketch=1;endArrow=open;endFill=0;" parent="WpliEfz5V6QQTeIyRUAZ-1" source="lN8_YnjqbJyHAh-Qqi8v-0" target="3BvNVmp9yPucYOcCBTMv-0" edge="1">
                    <mxGeometry relative="1" as="geometry"/>
                </mxCell>
                <mxCell id="lN8_YnjqbJyHAh-Qqi8v-0" value="&lt;h3&gt;Flask&lt;/h3&gt;&lt;div&gt;[Web Framework]&lt;br&gt;&lt;/div&gt;" style="rounded=0;whiteSpace=wrap;html=1;dashed=1;sketch=1;strokeColor=#666666;fillColor=#f5f5f5;fontColor=#333333;" parent="WpliEfz5V6QQTeIyRUAZ-1" vertex="1">
                    <mxGeometry x="140" y="-1580" width="150" height="100" as="geometry"/>
                </mxCell>
                <mxCell id="nyIn1jZzzwhnAnqKCOxg-0" value="&lt;h2&gt;&lt;font color=&quot;#5E4969&quot;&gt;MongoDB Atlas&lt;/font&gt;&lt;/h2&gt;&lt;div align=&quot;center&quot;&gt;&lt;font color=&quot;#5E4969&quot;&gt;Cloud hosted database stores all the information about a users tasks, including their title and state&lt;br&gt;&lt;/font&gt;&lt;/div&gt;" style="rounded=0;whiteSpace=wrap;html=1;shadow=0;sketch=1;strokeWidth=2;fontFamily=Helvetica;align=center;strokeColor=#666666;fillColor=#f5f5f5;labelPosition=center;verticalLabelPosition=middle;verticalAlign=top;fontColor=#333333;" parent="WpliEfz5V6QQTeIyRUAZ-1" vertex="1">
                    <mxGeometry x="810" y="-1320" width="231" height="120" as="geometry"/>
                </mxCell>
                <mxCell id="nyIn1jZzzwhnAnqKCOxg-1" value="&lt;h2&gt;Application Code&lt;/h2&gt;" style="rounded=0;whiteSpace=wrap;html=1;strokeColor=#666666;fontColor=#333333;fillColor=none;dashed=1;sketch=1;align=left;verticalAlign=bottom;" parent="WpliEfz5V6QQTeIyRUAZ-1" vertex="1">
                    <mxGeometry x="90" y="-1440" width="670" height="330" as="geometry"/>
                </mxCell>
                <mxCell id="m4XOhgypz0mYZI7o-ASw-8" style="edgeStyle=orthogonalEdgeStyle;rounded=0;sketch=1;orthogonalLoop=1;jettySize=auto;html=1;entryX=0;entryY=0.25;entryDx=0;entryDy=0;startArrow=none;startFill=0;endArrow=open;endFill=0;fontColor=#000000;exitX=1;exitY=0.25;exitDx=0;exitDy=0;" parent="WpliEfz5V6QQTeIyRUAZ-1" source="3BvNVmp9yPucYOcCBTMv-0" target="3BvNVmp9yPucYOcCBTMv-2" edge="1">
                    <mxGeometry relative="1" as="geometry"/>
                </mxCell>
                <mxCell id="m4XOhgypz0mYZI7o-ASw-9" value="&lt;div&gt;Updates state&lt;/div&gt;&lt;div&gt;of tasks&lt;br&gt;&lt;/div&gt;" style="edgeLabel;html=1;align=center;verticalAlign=middle;resizable=0;points=[];fontColor=#000000;" parent="m4XOhgypz0mYZI7o-ASw-8" vertex="1" connectable="0">
                    <mxGeometry x="0.0099" y="-24" relative="1" as="geometry">
                        <mxPoint x="9" y="-2" as="offset"/>
                    </mxGeometry>
                </mxCell>
                <mxCell id="3BvNVmp9yPucYOcCBTMv-0" value="&lt;h3&gt;Flask App&lt;/h3&gt;&lt;div&gt;Manages routing and templating&lt;br&gt;&lt;/div&gt;" style="rounded=0;whiteSpace=wrap;html=1;dashed=1;sketch=1;fillColor=#dae8fc;align=center;strokeColor=#6c8ebf;" parent="WpliEfz5V6QQTeIyRUAZ-1" vertex="1">
                    <mxGeometry x="150" y="-1300" width="130" height="80" as="geometry"/>
                </mxCell>
                <mxCell id="3BvNVmp9yPucYOcCBTMv-3" style="edgeStyle=orthogonalEdgeStyle;rounded=0;sketch=1;orthogonalLoop=1;jettySize=auto;html=1;startArrow=none;startFill=0;endArrow=open;endFill=0;fontColor=#000000;" parent="WpliEfz5V6QQTeIyRUAZ-1" source="3BvNVmp9yPucYOcCBTMv-2" target="nyIn1jZzzwhnAnqKCOxg-0" edge="1">
                    <mxGeometry relative="1" as="geometry"/>
                </mxCell>
                <mxCell id="3BvNVmp9yPucYOcCBTMv-4" value="&lt;div&gt;Makes API&lt;/div&gt;&lt;div&gt; calls to&lt;/div&gt;" style="edgeLabel;html=1;align=center;verticalAlign=middle;resizable=0;points=[];fontColor=#000000;" parent="3BvNVmp9yPucYOcCBTMv-3" vertex="1" connectable="0">
                    <mxGeometry x="-0.2647" y="-37" relative="1" as="geometry">
                        <mxPoint x="10" y="-37" as="offset"/>
                    </mxGeometry>
                </mxCell>
                <mxCell id="bVfqopdxRUny_28Dn4FG-1" value="&lt;div&gt;Provides list&lt;/div&gt;&lt;div&gt;of tasks for user&lt;br&gt;&lt;/div&gt;" style="edgeStyle=orthogonalEdgeStyle;rounded=0;sketch=1;orthogonalLoop=1;jettySize=auto;html=1;exitX=0;exitY=0.75;exitDx=0;exitDy=0;entryX=1;entryY=0.75;entryDx=0;entryDy=0;startArrow=none;startFill=0;endArrow=open;endFill=0;fontColor=#000000;" parent="WpliEfz5V6QQTeIyRUAZ-1" source="3BvNVmp9yPucYOcCBTMv-2" target="3BvNVmp9yPucYOcCBTMv-0" edge="1">
                    <mxGeometry relative="1" as="geometry"/>
                </mxCell>
                <mxCell id="3BvNVmp9yPucYOcCBTMv-2" value="&lt;div align=&quot;center&quot;&gt;&lt;h3&gt;Mongo DB Client&lt;/h3&gt;&lt;div&gt;Handles interaction with Atlas cluster and Mongo DB&lt;br&gt;&lt;/div&gt;&lt;/div&gt;" style="rounded=0;whiteSpace=wrap;html=1;dashed=1;sketch=1;fillColor=#dae8fc;align=center;strokeColor=#6c8ebf;" parent="WpliEfz5V6QQTeIyRUAZ-1" vertex="1">
                    <mxGeometry x="500" y="-1305" width="170" height="90" as="geometry"/>
                </mxCell>
            </root>
        </mxGraphModel>
    </diagram>
</mxfile>